<svg width="65" height="23" viewBox="0 0 65 23" fill="none" xmlns="http://www.w3.org/2000/svg">
<path d="M12.624 10.728C12.624 12.12 12.08 13.328 10.992 14.352L10.8 14.52C11.232 14.68 11.448 15.016 11.448 15.528V19.512C11.448 19.576 11.456 19.632 11.472 19.68C11.488 19.728 11.552 19.752 11.664 19.752H22.464C23.056 19.752 23.352 20.16 23.352 20.976C23.368 21.776 23.072 22.176 22.464 22.176H10.104C9.528 22.176 9.128 22.024 8.904 21.72C8.696 21.432 8.592 21.104 8.592 20.736V15.696C8.112 15.808 7.608 15.864 7.08 15.864C5.528 15.864 4.208 15.36 3.12 14.352C2.032 13.344 1.488 12.136 1.488 10.728C1.488 9.304 2.032 8.096 3.12 7.104C3.52 6.736 3.952 6.432 4.416 6.192H1.488C0.896 6.192 0.592 5.792 0.576 4.992C0.576 4.176 0.88 3.768 1.488 3.768H5.664V2.136C5.664 1.368 6.136 0.983999 7.08 0.983999C8.04 0.983999 8.52 1.368 8.52 2.136V3.768H12.528C13.152 3.768 13.456 4.176 13.44 4.992C13.44 5.792 13.136 6.192 12.528 6.192H9.696C10.16 6.432 10.592 6.744 10.992 7.128C12.08 8.136 12.624 9.336 12.624 10.728ZM18.456 14.808C18.456 15.576 17.976 15.96 17.016 15.96C16.072 15.96 15.6 15.576 15.6 14.808V2.376C15.6 1.608 16.072 1.224 17.016 1.224C17.976 1.224 18.456 1.608 18.456 2.376V14.808ZM9.792 10.584C9.792 9.768 9.52 9.08 8.976 8.52C8.448 7.96 7.816 7.68 7.08 7.68C6.344 7.68 5.704 7.96 5.16 8.52C4.632 9.08 4.368 9.768 4.368 10.584C4.368 11.4 4.632 12.088 5.16 12.648C5.704 13.208 6.344 13.488 7.08 13.488C7.816 13.488 8.448 13.208 8.976 12.648C9.52 12.088 9.792 11.4 9.792 10.584ZM22.944 7.872C22.944 8.384 22.76 8.824 22.392 9.192C22.04 9.544 21.608 9.72 21.096 9.72C20.584 9.72 20.144 9.544 19.776 9.192C19.424 8.824 19.248 8.384 19.248 7.872C19.248 7.36 19.424 6.928 19.776 6.576C20.144 6.208 20.584 6.024 21.096 6.024C21.608 6.024 22.04 6.208 22.392 6.576C22.76 6.928 22.944 7.36 22.944 7.872ZM45.024 21.024C45.024 21.392 44.912 21.72 44.688 22.008C44.48 22.312 44.088 22.464 43.512 22.464H32.28C31.704 22.464 31.304 22.312 31.08 22.008C30.872 21.72 30.768 21.392 30.768 21.024V15.384C30.768 15.016 30.872 14.688 31.08 14.4C31.304 14.096 31.704 13.944 32.28 13.944H43.512C44.088 13.944 44.48 14.096 44.688 14.4C44.912 14.688 45.024 15.016 45.024 15.384V21.024ZM34.176 11.376C34.624 12.16 34.424 12.776 33.576 13.224C32.744 13.656 32.12 13.504 31.704 12.768L28.92 7.8L25.56 17.4C25.288 18.184 24.696 18.432 23.784 18.144C22.872 17.856 22.568 17.288 22.872 16.44L27.168 4.176H24.288C23.696 4.176 23.392 3.776 23.376 2.976C23.376 2.16 23.68 1.752 24.288 1.752H33.36C33.984 1.752 34.288 2.16 34.272 2.976C34.272 3.776 33.968 4.176 33.36 4.176H30.192L30.144 4.32L34.176 11.376ZM38.208 12.216C38.208 12.984 37.728 13.368 36.768 13.368C35.824 13.368 35.352 12.984 35.352 12.216V2.376C35.352 1.608 35.824 1.224 36.768 1.224C37.728 1.224 38.208 1.608 38.208 2.376V5.688H39.888C40.128 5.688 40.32 5.752 40.464 5.88V2.376C40.464 1.608 40.936 1.224 41.88 1.224C42.84 1.224 43.32 1.608 43.32 2.376V12.216C43.32 12.984 42.84 13.368 41.88 13.368C40.936 13.368 40.464 12.984 40.464 12.216V7.92C40.32 8.048 40.128 8.112 39.888 8.112H38.208V12.216ZM42.168 16.608C42.168 16.544 42.16 16.488 42.144 16.44C42.128 16.392 42.064 16.368 41.952 16.368H33.84C33.728 16.368 33.664 16.392 33.648 16.44C33.632 16.488 33.624 16.544 33.624 16.608V19.8C33.624 19.864 33.632 19.92 33.648 19.968C33.664 20.016 33.728 20.04 33.84 20.04H41.952C42.064 20.04 42.128 20.016 42.144 19.968C42.16 19.92 42.168 19.864 42.168 19.8V16.608ZM61.416 9.792C61.416 10.304 61.232 10.744 60.864 11.112C60.512 11.464 60.08 11.64 59.568 11.64C59.056 11.64 58.616 11.464 58.248 11.112C57.896 10.744 57.72 10.304 57.72 9.792C57.72 9.28 57.896 8.848 58.248 8.496C58.616 8.128 59.056 7.944 59.568 7.944C60.08 7.944 60.512 8.128 60.864 8.496C61.232 8.848 61.416 9.28 61.416 9.792ZM64.368 20.472C64.368 21.24 63.888 21.624 62.928 21.624C61.984 21.624 61.512 21.24 61.512 20.472V2.376C61.512 1.608 61.984 1.224 62.928 1.224C63.888 1.224 64.368 1.608 64.368 2.376V20.472ZM57.672 10.008C57.672 12.328 57.128 14.328 56.04 16.008C54.968 17.688 53.504 18.528 51.648 18.528C49.808 18.528 48.336 17.696 47.232 16.032C46.128 14.368 45.576 12.36 45.576 10.008C45.576 7.656 46.128 5.648 47.232 3.984C48.336 2.32 49.808 1.488 51.648 1.488C53.52 1.488 54.992 2.328 56.064 4.008C57.136 5.672 57.672 7.672 57.672 10.008ZM54.864 10.008C54.864 8.296 54.584 6.856 54.024 5.688C53.48 4.504 52.688 3.912 51.648 3.912C50.64 3.912 49.848 4.504 49.272 5.688C48.712 6.856 48.432 8.296 48.432 10.008C48.432 11.72 48.712 13.168 49.272 14.352C49.848 15.52 50.64 16.104 51.648 16.104C52.688 16.104 53.48 15.52 54.024 14.352C54.584 13.168 54.864 11.72 54.864 10.008Z" fill="#11181C"/>
</svg>
